HIERARCHY
ROOT Hips
{
    OFFSET 0.000000 0.000000 0.000000
    CHANNELS 6 Xposition Yposition Zposition Zrotation Xrotation Yrotation
    JOINT Spine
    {
        OFFSET -0.000000 6.925600 0.000000
        CHANNELS 3 Zrotation Xrotation Yrotation
        JOINT Spine1
        {
            OFFSET -0.000000 16.343796 0.000000
            CHANNELS 3 Zrotation Xrotation Yrotation
            JOINT Neck
            {
                OFFSET -0.000000 18.032967 0.000000
                CHANNELS 3 Zrotation Xrotation Yrotation
                JOINT Head
                {
                    OFFSET -0.000000 13.091072 1.689171
                    CHANNELS 3 Zrotation Xrotation Yrotation
                    End Site
                    {
                        OFFSET -0.000000 16.891708 0.000000
                    }
                }
            }
            JOINT LeftShoulder
            {
                OFFSET 3.336773 14.146137 -0.012206
                CHANNELS 3 Zrotation Xrotation Yrotation
                JOINT LeftArm
                {
                    OFFSET 11.765518 0.000000 0.000000
                    CHANNELS 3 Zrotation Xrotation Yrotation
                    JOINT LeftForeArm
                    {
                        OFFSET 25.163450 0.000000 0.000000
                        CHANNELS 3 Zrotation Xrotation Yrotation
                        JOINT LeftHand
                        {
                            OFFSET 21.783554 0.000000 0.000000
                            CHANNELS 3 Zrotation Xrotation Yrotation
                            End Site
                            {
                                OFFSET 12.668781 0.000000 0.000000
                            }
                        }
                    }
                }
            }
            JOINT RightShoulder
            {
                OFFSET -3.409204 14.146137 -0.012206
                CHANNELS 3 Zrotation Xrotation Yrotation
                JOINT RightArm
                {
                    OFFSET -11.765518 0.000000 0.000000
                    CHANNELS 3 Zrotation Xrotation Yrotation
                    JOINT RightForeArm
                    {
                        OFFSET -25.163450 0.000000 0.000000
                        CHANNELS 3 Zrotation Xrotation Yrotation
                        JOINT RightHand
                        {
                            OFFSET -21.783554 0.000000 0.000000
                            CHANNELS 3 Zrotation Xrotation Yrotation
                            End Site
                            {
                                OFFSET -12.668781 0.000000 0.000000
                            }
                        }
                    }
                }
            }
        }
    }
    JOINT LeftUpLeg
    {
        OFFSET 8.445854 0.000000 0.000000
        CHANNELS 3 Zrotation Xrotation Yrotation
        JOINT LeftLeg
        {
            OFFSET -0.000000 -40.674755 0.000000
            CHANNELS 3 Zrotation Xrotation Yrotation
            JOINT LeftFoot
            {
                OFFSET -0.000000 -37.111794 0.000000
                CHANNELS 3 Zrotation Xrotation Yrotation
                JOINT LeftToeBase
                {
                    OFFSET -0.000000 -5.489805 12.668781
                    CHANNELS 3 Zrotation Xrotation Yrotation
                    End Site
                    {
                        OFFSET -0.000000 0.000000 3.378341
                    }
                }
            }
        }
    }
    JOINT RightUpLeg
    {
        OFFSET -8.445854 0.000000 0.000000
        CHANNELS 3 Zrotation Xrotation Yrotation
        JOINT RightLeg
        {
            OFFSET -0.000000 -40.674755 0.000000
            CHANNELS 3 Zrotation Xrotation Yrotation
            JOINT RightFoot
            {
                OFFSET -0.000000 -37.111794 0.000000
                CHANNELS 3 Zrotation Xrotation Yrotation
                JOINT RightToeBase
                {
                    OFFSET -0.000000 -5.489805 12.668781
                    CHANNELS 3 Zrotation Xrotation Yrotation
                    End Site
                    {
                        OFFSET -0.000000 0.000000 3.378341
                    }
                }
            }
        }
    }
}
MOTION
Frames:    10
Frame Time:    0.008333
1.221497    60.731552    104.079140    1.751874    19.066458    178.270142    1.476945    32.109707    -2.161042    0.355888    -0.380202    -0.587990    -0.734032    -5.290815    -1.400212    -2.333174    9.291203    -1.024002    2.904702    4.881140    2.226458    -48.510883    16.232199    -53.216179    37.528439    -14.231943    -71.189796    11.242497    13.239120    -7.070080    -4.592605    2.518546    4.543727    62.789154    7.836030    57.537338    -20.496767    5.527949    78.424896    3.412201    22.013550    0.330467    14.169642    -46.522488    9.838484    -43.559837    66.183853    27.664896    -4.147040    -8.572204    14.878066    -5.035322    -4.895601    4.218838    -10.175127    -46.661434    -1.429012    10.948010    65.730232    -7.597445    18.609180    0.693417    14.776863    1.985938    -4.134938    1.714164    
1.264233    60.476051    104.246399    1.844833    17.219948    178.309906    1.526677    29.953781    -2.134125    0.367835    -0.053331    -0.584808    -0.635995    -5.131587    -1.413182    -2.415369    9.252242    -1.013606    2.867287    4.905218    2.264062    -48.684689    16.179800    -53.338501    37.881489    -14.989290    -71.689491    10.730332    13.088644    -6.866917    -4.567518    2.506378    4.532539    62.737312    7.851768    57.525867    -20.468924    5.538580    78.495155    4.268095    22.010612    -0.044294    14.967466    -48.744541    10.568521    -44.155113    66.449966    28.270542    -2.650828    -8.313924    14.828461    -5.373607    -5.486560    3.865600    -10.445269    -48.853180    -2.036513    10.960584    66.045586    -7.761829    18.634947    0.812681    14.868787    1.976380    -4.114041    1.701813    
1.212836    60.726887    104.076294    1.781145    19.054893    178.281418    1.659689    32.131851    -2.248140    0.095963    -0.387296    -0.600472    -0.542833    -5.082530    -1.414892    -2.472209    9.348297    -0.993651    2.830318    4.918955    2.291465    -48.670811    16.093252    -53.394665    37.987259    -15.826317    -72.359886    10.152787    12.826243    -5.781579    -4.548950    2.500957    4.538895    62.711391    7.843998    57.539570    -20.429567    5.618591    78.483566    5.381530    22.026920    -0.575167    14.193363    -46.548435    9.792673    -43.589718    66.177887    27.706074    -2.504158    -8.275982    14.824403    -5.292261    -5.369622    3.885468    -10.203158    -46.679420    -1.453560    11.063504    65.746063    -7.947471    18.601044    0.797106    15.038795    1.971804    -4.125063    1.743479    
1.207469    60.725967    104.073608    1.803087    19.050205    178.287140    1.761682    32.139618    -2.300368    -0.020461    -0.395477    -0.608140    -0.515180    -5.020337    -1.382223    -2.449060    9.441171    -0.960585    2.784041    4.935406    2.321820    -48.758892    16.226019    -53.416615    38.665077    -16.680517    -72.561600    7.235301    12.768206    -6.229415    -4.542120    2.491739    4.532520    62.678429    7.850427    57.600231    -20.444466    5.830780    78.348747    6.146326    22.172112    -1.025528    14.186782    -46.574673    9.784690    -43.567501    66.198578    27.731230    -2.361807    -8.152632    14.815074    -5.250758    -5.298714    3.925395    -10.190083    -46.678108    -1.470391    11.013441    65.748665    -7.940683    18.654804    0.795847    15.078592    1.909147    -4.030583    1.758561    
1.201947    60.722713    104.072609    1.811688    19.045506    178.295563    1.847115    32.149441    -2.353940    -0.129910    -0.410295    -0.617694    -0.416086    -5.032205    -1.394355    -2.563669    9.602031    -0.936813    2.733097    4.921288    2.348374    -48.855301    16.164911    -53.460819    38.826069    -17.440754    -73.081032    5.754732    12.535770    -5.618551    -4.547507    2.485816    4.517138    62.669868    7.884915    57.761086    -20.200399    5.927520    78.111084    6.065165    21.970367    -1.670103    14.171162    -46.601231    9.785528    -43.538757    66.215538    27.713890    -2.264766    -8.040016    14.841020    -5.176220    -5.206406    3.903499    -10.205163    -46.683395    -1.463786    11.079732    65.748451    -7.983890    18.657013    0.795698    15.069808    1.889478    -3.981158    1.718837    
1.199770    60.718845    104.069504    1.821852    19.040628    178.298599    1.895974    32.133804    -2.388381    -0.220257    -0.405649    -0.625112    -0.409256    -4.990478    -1.328075    -2.476104    9.766264    -0.882938    2.699887    4.945359    2.391208    -48.934467    15.843610    -53.434406    38.559414    -17.903254    -73.973198    4.294027    12.442309    -4.713053    -4.519587    2.459210    4.528418    62.638065    7.881207    57.775871    -19.725723    6.251675    77.659836    8.074012    21.744408    -1.703834    14.145247    -46.647552    9.790998    -43.605156    66.219299    27.808245    -3.495188    -7.927169    14.905212    -4.765171    -4.466183    4.376467    -10.183507    -46.696335    -1.446784    11.054546    65.761635    -7.968458    18.622030    0.805924    15.064344    1.876892    -3.968326    1.735711    
1.195575    60.714359    104.069733    1.829445    19.023911    178.303436    1.961339    32.119171    -2.432129    -0.326807    -0.426316    -0.634055    -0.334882    -4.892499    -1.315531    -2.503086    9.809993    -0.857041    2.670654    4.984774    2.429924    -48.933346    15.932272    -53.527229    38.996265    -18.691071    -74.174698    2.435233    12.224039    -4.179758    -4.501945    2.454026    4.539519    62.672680    7.866115    57.806717    -19.965534    6.558415    77.357239    9.120171    22.068476    -2.421961    14.148773    -46.684856    9.821241    -43.585091    66.232903    27.786961    -3.377531    -7.752112    14.934628    -4.795662    -4.492628    4.415291    -10.181596    -46.719994    -1.423463    11.104041    65.770653    -7.990525    18.621487    0.794768    15.020363    1.828281    -3.889989    1.736248    
1.190335    60.711617    104.068741    1.836345    19.026411    178.314331    2.050890    32.109394    -2.509295    -0.458280    -0.423097    -0.651778    -0.276230    -4.821839    -1.278077    -2.490436    9.864597    -0.814764    2.670205    5.009774    2.494889    -49.012321    15.923336    -53.593567    38.543644    -19.849360    -74.764702    -1.079957    11.082420    -3.827678    -4.506964    2.410508    4.582837    62.704762    7.885952    57.857117    -19.789150    6.883294    76.862457    10.019361    22.034409    -3.018991    14.135205    -46.700256    9.821939    -43.580544    66.242012    27.799595    -3.277182    -7.676210    14.944798    -4.724949    -4.387782    4.435890    -10.173764    -46.720482    -1.429361    11.064872    65.777435    -8.001874    18.613960    0.803309    15.053316    1.761630    -3.787950    1.749064    
1.185063    60.711182    104.068504    1.845615    19.030382    178.321655    2.096994    32.108894    -2.547321    -0.525112    -0.443572    -0.660293    -0.247241    -4.638854    -1.253680    -2.451930    9.770090    -0.797531    2.678805    5.018835    2.476274    -49.394810    15.838241    -53.692589    39.517811    -19.637192    -74.606522    -0.957732    12.083076    -3.025055    -4.518366    2.399352    4.608822    62.705059    7.902359    57.886154    -19.535027    7.200773    76.182205    9.837153    21.950094    -3.139894    14.125133    -46.709175    9.820606    -43.579094    66.244080    27.806126    -3.193368    -7.594669    14.980919    -4.715484    -4.360368    4.472506    -9.689101    -46.895210    -2.584429    6.559902    66.353394    -4.439963    18.942404    0.966385    15.873301    1.728327    -3.739532    1.761179    
1.178079    60.711525    104.068886    1.853398    19.039896    178.335403    2.095721    32.117031    -2.584724    -0.516957    -0.481296    -0.672946    -0.241718    -4.556853    -1.210924    -2.441423    9.866226    -0.753267    2.769573    4.967601    2.403509    -49.774433    15.731903    -53.561932    39.513092    -19.986965    -74.978249    -2.824684    11.969437    -2.291655    -4.566740    2.178231    4.640405    62.706127    8.085785    57.740334    -19.642761    7.431109    75.738983    11.038148    22.028240    -3.941374    14.102606    -46.714634    9.808665    -43.550335    66.249428    27.801853    -3.106494    -7.486103    14.980086    -4.738629    -4.386507    4.486617    -9.671144    -46.870979    -2.536022    6.565424    66.325249    -4.242104    18.963100    0.881021    15.629848    1.655661    -3.627827    1.774171    
